<svg version="1.1" id="Layer_1" xmlns="http://www.w3.org/2000/svg" xmlns:xlink="http://www.w3.org/1999/xlink" x="0px" y="0px"
	 width="100%" viewBox="0 0 512 512" enable-background="new 0 0 512 512" xml:space="preserve">
<path fill="#266BDC" opacity="1.000000" stroke="none" 
	d="
M513.000000,182.000000 
	C513.000000,292.268829 513.000000,402.537689 513.000000,513.000000 
	C376.977417,513.000000 240.954758,513.000000 104.485573,512.631470 
	C107.192398,508.490692 110.335014,504.709320 113.508614,500.954163 
	C114.101898,500.252106 115.434662,499.600037 115.382492,499.018524 
	C114.966019,494.376312 116.736435,494.154144 120.671349,495.436981 
	C122.231903,495.945740 125.135773,494.462982 126.480965,493.010071 
	C128.557953,490.766754 126.425499,489.474487 124.503616,488.107971 
	C123.668633,487.514252 123.808197,485.549957 123.502655,484.197205 
	C125.985275,484.509460 128.239807,485.459503 129.093857,484.742157 
	C130.333725,483.700745 130.562698,481.455780 131.222794,479.724091 
	C131.593857,479.414154 131.964905,479.104218 132.335968,478.794281 
	C132.796494,480.246246 133.257034,481.698212 133.717560,483.150208 
	C134.177979,482.969696 134.638397,482.789185 135.098801,482.608673 
	C135.636490,477.609375 138.390396,475.889374 142.995483,475.463226 
	C146.237045,475.163269 147.632721,472.369385 146.004578,469.066895 
	C144.639221,466.297363 145.830536,464.882965 148.167267,463.465881 
	C152.123306,461.066742 155.938019,458.423920 159.705627,455.734344 
	C160.397736,455.240265 160.584579,454.038361 161.321777,452.999878 
	C163.882797,451.266266 166.685455,450.120239 168.262405,448.043518 
	C172.443283,442.537323 176.094467,436.628906 180.202835,431.008484 
	C181.980652,430.127930 183.512039,429.119476 185.043442,428.110992 
	C185.191116,428.557739 185.338806,429.004517 185.486481,429.451263 
	C187.450943,428.898315 190.728455,428.834442 191.148605,427.706329 
	C192.810333,423.244690 200.880768,422.297760 197.922806,415.415894 
	C197.802597,415.136230 198.667374,414.409424 199.103775,413.918060 
	C202.475342,410.122162 205.854431,406.332947 209.129517,402.655762 
	C210.172913,403.495636 211.695648,404.721344 213.218384,405.947052 
	C213.767685,403.419220 213.013077,401.780792 213.203323,400.260681 
	C213.365372,398.965881 214.339798,397.165863 215.430405,396.697968 
	C220.490646,394.527191 224.916595,391.950378 226.896149,386.332367 
	C227.971054,383.281677 229.486359,380.735077 233.765152,381.372955 
	C240.361435,382.356323 241.714767,380.433533 239.435226,374.243225 
	C239.161438,373.499725 239.018387,372.708069 238.951202,372.454254 
	C243.604294,369.586121 247.963837,367.017761 252.185364,364.239655 
	C253.934753,363.088440 255.557632,361.634399 256.927338,360.049530 
	C258.171570,358.609802 258.994324,356.805878 260.467346,355.097107 
	C267.953247,354.966278 274.974670,354.900818 282.460388,354.905640 
	C318.253479,354.981781 353.582306,354.988617 388.911163,354.993134 
	C401.196533,354.994690 404.513367,352.770477 409.362976,341.295166 
	C411.609100,335.980286 408.598053,324.504761 403.658356,322.504425 
	C398.362946,320.360016 392.628174,319.103760 386.970459,318.118866 
	C383.082336,317.442078 378.998566,317.889313 375.046570,317.493042 
	C376.701904,314.137299 378.312866,311.122650 380.072662,307.829437 
	C390.832581,308.152924 395.848450,300.789520 398.097687,291.037811 
	C399.718109,292.224030 401.298462,293.900909 401.774170,293.630981 
	C403.162933,292.843018 404.786438,291.429626 405.109955,289.989929 
	C406.283081,284.769867 408.249542,281.574005 414.572205,281.732330 
	C419.715515,281.861176 421.372803,278.998596 421.273163,273.528412 
	C421.217102,270.451721 421.263092,267.373169 421.263092,264.394073 
	C424.591003,262.979706 428.060272,261.378479 431.623688,260.025146 
	C435.450500,258.571808 439.621887,257.811798 443.144440,255.852829 
	C445.188080,254.716324 447.133911,251.989822 447.589081,249.676834 
	C448.943726,242.792435 449.745544,241.656738 456.468079,240.929184 
	C457.371124,240.831451 458.233704,240.359573 459.047882,240.083694 
	C458.721252,237.308334 457.625275,234.554504 458.410278,232.529968 
	C459.006653,230.991913 461.995483,230.381516 463.953613,229.340393 
	C463.019684,228.497665 461.928833,227.513367 460.490143,226.215179 
	C461.697479,225.742691 462.354034,225.213623 462.868652,225.327301 
	C467.067261,226.254929 470.078369,225.724030 470.481750,220.466354 
	C470.543854,219.656418 472.579376,218.555450 473.824493,218.357208 
	C478.582245,217.599869 482.352692,213.967194 483.020935,209.187057 
	C483.188934,207.985367 483.633453,206.822327 483.943146,205.670441 
	C493.175446,207.684586 493.132660,209.535538 498.207703,193.622665 
	C499.650421,194.206589 501.074982,194.783157 503.066650,195.589279 
	C502.237518,187.633133 510.644287,187.222870 513.000000,182.000000 
M409.446289,427.085693 
	C409.956268,425.584167 410.731171,424.116791 410.930023,422.575165 
	C411.751770,416.204193 408.580658,410.647797 407.303741,404.711517 
	C404.934235,393.695648 388.287842,383.970886 378.877686,383.101654 
	C369.958923,382.277802 361.396149,383.658417 353.576660,388.732697 
	C344.482758,394.633942 339.159668,403.221100 337.294464,413.365509 
	C336.120911,419.747864 336.753571,426.465607 339.288544,433.178009 
	C342.863068,442.642914 348.965179,449.073364 357.764252,452.908417 
	C369.990967,458.237305 382.632629,458.418854 393.837189,450.774811 
	C401.636658,445.453827 408.870789,438.727692 409.446289,427.085693 
M408.494598,286.276825 
	C409.076050,286.393127 409.657532,286.509430 410.238983,286.625702 
	C410.168457,286.066223 410.097931,285.506714 410.027405,284.947235 
	C409.536804,285.231262 409.046204,285.515289 408.494598,286.276825 
z"/>
<path fill="#2B70E3" opacity="1.000000" stroke="none" 
	d="
M1.000000,317.000000 
	C1.000000,211.725266 1.000000,106.450539 1.000000,1.000000 
	C154.355927,1.000000 307.711945,1.000000 461.489441,1.357579 
	C459.444824,4.471211 457.254547,7.572895 454.404297,9.847700 
	C452.812164,11.118433 450.057037,10.831998 447.954346,11.599154 
	C446.618500,12.086515 445.279999,13.018458 444.361206,14.104966 
	C442.303345,16.538385 440.418610,19.133322 438.635559,21.778572 
	C437.473419,23.502708 435.988068,25.346159 435.726166,27.282074 
	C434.538666,36.059834 434.632233,36.208004 426.381439,33.375175 
	C422.218292,31.945812 421.022675,33.574997 421.641876,37.300053 
	C422.080200,39.937057 421.332275,40.815277 418.743958,41.873329 
	C416.818939,42.660244 415.672607,45.612930 414.426392,47.745331 
	C411.803162,52.233959 413.217010,59.240074 407.276428,60.806572 
	C404.593994,58.902897 402.597168,57.485786 400.553619,56.035503 
	C400.002045,60.441574 399.584747,63.775257 399.166046,67.120094 
	C400.545319,67.527069 402.007294,67.958443 403.933990,68.526939 
	C400.939819,70.907631 398.471771,72.870003 395.671326,74.897774 
	C394.891418,74.919510 394.443970,74.875854 393.952454,74.498474 
	C393.121094,73.311295 392.333832,72.457840 391.546570,71.604401 
	C391.032196,72.680283 390.517822,73.756165 389.539001,74.900551 
	C385.755280,74.979652 382.436005,74.994034 379.116760,75.000267 
	C350.075836,75.054794 321.034912,75.107872 291.529419,75.098686 
	C262.375275,75.079277 233.685699,75.122566 204.531784,75.099815 
	C170.265350,75.018410 136.463028,75.049149 102.661697,74.880020 
	C100.495567,74.869186 97.237595,73.937912 96.347832,72.375458 
	C88.707077,58.957966 77.042404,52.489017 61.996559,52.052544 
	C49.352119,51.685730 36.688274,52.034359 24.033808,51.949085 
	C16.482788,51.898205 10.693523,54.316456 7.058086,61.533295 
	C3.051788,69.486336 7.888105,83.301033 16.385159,85.647522 
	C21.332132,87.013649 26.568426,87.718025 31.706221,87.921898 
	C40.683762,88.278152 49.695095,88.255775 58.672832,87.900703 
	C62.251820,87.759163 64.669304,89.237991 66.066963,91.828133 
	C67.566254,94.606621 68.356552,97.876160 68.922791,101.027267 
	C70.131775,107.755196 70.948158,114.552681 72.021729,121.306366 
	C72.574509,124.783875 73.440689,128.212296 73.970245,131.692581 
	C74.512947,135.259369 74.584404,138.908401 75.280983,142.438782 
	C76.329147,147.751144 77.910416,152.958847 78.941696,158.273788 
	C79.658638,161.968704 79.006577,166.116516 80.410789,169.454208 
	C84.010529,178.010437 85.021790,186.986206 86.246277,196.387817 
	C87.239532,201.820999 88.135933,206.865280 89.068878,211.902786 
	C90.739799,220.925140 92.432724,229.943390 93.867981,239.206268 
	C91.908379,240.073273 89.949295,241.567184 88.531334,241.162949 
	C83.743164,239.797958 80.595276,241.634689 80.275330,246.659668 
	C80.006973,250.874268 78.331078,251.927963 74.366013,250.321350 
	C73.233299,249.862366 72.153969,249.271637 69.892395,248.185089 
	C71.941856,251.371414 73.285088,253.459763 75.105614,256.290161 
	C68.721413,255.205536 68.751328,255.229507 65.004219,259.906555 
	C64.293930,260.793121 62.973625,261.245544 62.413059,262.183990 
	C61.668327,263.430725 60.734200,265.126587 61.043015,266.331879 
	C61.873775,269.574371 60.290230,270.147034 57.717918,271.104950 
	C54.846012,272.174438 52.361202,274.284912 49.710796,275.946930 
	C48.624100,276.628357 47.421532,277.185638 46.484810,278.034576 
	C43.283131,280.936218 39.940304,283.733978 37.090500,286.959412 
	C33.210960,291.350311 32.246597,299.165619 23.513638,297.668518 
	C22.794283,297.545197 20.599106,300.596161 20.728271,302.023987 
	C21.055223,305.638153 19.581429,307.117828 16.433990,308.144440 
	C14.791412,308.680206 13.145739,309.888245 12.032430,311.232422 
	C9.115378,314.754333 5.449447,316.554688 1.000000,317.000000 
z"/>
<path fill="#296FE1" opacity="1.000000" stroke="none" 
	d="
M1.000000,317.375000 
	C5.449447,316.554688 9.115378,314.754333 12.032430,311.232422 
	C13.145739,309.888245 14.791412,308.680206 16.433990,308.144440 
	C19.581429,307.117828 21.055223,305.638153 20.728271,302.023987 
	C20.599106,300.596161 22.794283,297.545197 23.513638,297.668518 
	C32.246597,299.165619 33.210960,291.350311 37.090500,286.959412 
	C39.940304,283.733978 43.283131,280.936218 46.484810,278.034576 
	C47.421532,277.185638 48.624100,276.628357 49.710796,275.946930 
	C52.361202,274.284912 54.846012,272.174438 57.717918,271.104950 
	C60.290230,270.147034 61.873775,269.574371 61.043015,266.331879 
	C60.734200,265.126587 61.668327,263.430725 62.413059,262.183990 
	C62.973625,261.245544 64.293930,260.793121 65.004219,259.906555 
	C68.751328,255.229507 68.721413,255.205536 75.105614,256.290161 
	C73.285088,253.459763 71.941856,251.371414 69.892395,248.185089 
	C72.153969,249.271637 73.233299,249.862366 74.366013,250.321350 
	C78.331078,251.927963 80.006973,250.874268 80.275330,246.659668 
	C80.595276,241.634689 83.743164,239.797958 88.531334,241.162949 
	C89.949295,241.567184 91.908379,240.073273 94.218147,239.396454 
	C95.210320,241.198898 95.718987,243.038391 95.974220,244.912399 
	C96.567612,249.269257 96.827850,253.681198 97.614815,257.999451 
	C98.524895,262.993347 99.916145,267.897766 100.967567,272.868744 
	C101.305084,274.464447 101.024864,276.192139 101.371925,277.784302 
	C103.527946,287.674927 106.050095,297.493713 107.922607,307.435791 
	C109.554184,316.098602 111.954269,324.278992 118.045929,331.365845 
	C119.666145,333.820648 120.751740,336.441254 122.692406,337.991150 
	C127.202362,341.592834 132.139038,344.657776 136.876541,347.977692 
	C143.261505,352.452179 150.873138,353.721283 158.164032,354.736572 
	C165.961334,355.822388 174.040390,354.885040 182.460938,354.899139 
	C208.617905,355.032501 234.310394,355.097504 260.002869,355.162506 
	C258.994324,356.805878 258.171570,358.609802 256.927338,360.049530 
	C255.557632,361.634399 253.934753,363.088440 252.185364,364.239655 
	C247.963837,367.017761 243.604294,369.586121 238.951202,372.454254 
	C239.018387,372.708069 239.161438,373.499725 239.435226,374.243225 
	C241.714767,380.433533 240.361435,382.356323 233.765152,381.372955 
	C229.486359,380.735077 227.971054,383.281677 226.896149,386.332367 
	C224.916595,391.950378 220.490646,394.527191 215.430405,396.697968 
	C214.339798,397.165863 213.365372,398.965881 213.203323,400.260681 
	C213.013077,401.780792 213.767685,403.419220 213.218384,405.947052 
	C211.695648,404.721344 210.172913,403.495636 209.129517,402.655762 
	C205.854431,406.332947 202.475342,410.122162 199.103775,413.918060 
	C198.667374,414.409424 197.802597,415.136230 197.922806,415.415894 
	C200.880768,422.297760 192.810333,423.244690 191.148605,427.706329 
	C190.728455,428.834442 187.450943,428.898315 185.486481,429.451263 
	C185.338806,429.004517 185.191116,428.557739 185.043442,428.110992 
	C183.512039,429.119476 181.980652,430.127930 180.216217,430.579956 
	C181.421371,421.530914 181.535629,413.238129 177.990097,405.044525 
	C168.651581,383.463593 145.140060,376.886780 125.949455,387.720917 
	C118.797913,391.758392 113.517723,397.769867 110.398476,406.365692 
	C106.374298,417.455170 106.924431,427.594635 112.118820,437.436829 
	C122.495621,457.098633 142.259521,459.710327 161.004623,453.163177 
	C160.584579,454.038361 160.397736,455.240265 159.705627,455.734344 
	C155.938019,458.423920 152.123306,461.066742 148.167267,463.465881 
	C145.830536,464.882965 144.639221,466.297363 146.004578,469.066895 
	C147.632721,472.369385 146.237045,475.163269 142.995483,475.463226 
	C138.390396,475.889374 135.636490,477.609375 135.098801,482.608673 
	C134.638397,482.789185 134.177979,482.969696 133.717560,483.150208 
	C133.257034,481.698212 132.796494,480.246246 132.335968,478.794281 
	C131.964905,479.104218 131.593857,479.414154 131.222794,479.724091 
	C130.562698,481.455780 130.333725,483.700745 129.093857,484.742157 
	C128.239807,485.459503 125.985275,484.509460 123.502655,484.197205 
	C123.808197,485.549957 123.668633,487.514252 124.503616,488.107971 
	C126.425499,489.474487 128.557953,490.766754 126.480965,493.010071 
	C125.135773,494.462982 122.231903,495.945740 120.671349,495.436981 
	C116.736435,494.154144 114.966019,494.376312 115.382492,499.018524 
	C115.434662,499.600037 114.101898,500.252106 113.508614,500.954163 
	C110.335014,504.709320 107.192398,508.490692 104.019531,512.631470 
	C69.718002,513.000000 35.435997,513.000000 1.000000,513.000000 
	C1.000000,449.979187 1.000000,386.958252 1.251590,323.348511 
	C1.335454,321.839813 1.167727,320.919891 1.000000,320.000000 
	C1.000000,319.250000 1.000000,318.500000 1.000000,317.375000 
M236.132080,376.912598 
	C235.992615,375.824280 235.853134,374.735992 235.713669,373.647675 
	C235.042328,373.867065 234.370987,374.086456 233.699646,374.305847 
	C234.327454,375.230682 234.955246,376.155548 236.132080,376.912598 
M143.209030,470.622833 
	C142.887253,469.931244 142.565475,469.239655 142.243698,468.548065 
	C141.743774,469.043121 141.243835,469.538177 140.743912,470.033234 
	C141.438690,470.359680 142.133469,470.686127 143.209030,470.622833 
z"/>
<path fill="#286DDF" opacity="1.000000" stroke="none" 
	d="
M396.003723,74.832367 
	C398.471771,72.870003 400.939819,70.907631 403.933990,68.526939 
	C402.007294,67.958443 400.545319,67.527069 399.166046,67.120094 
	C399.584747,63.775257 400.002045,60.441574 400.553619,56.035503 
	C402.597168,57.485786 404.593994,58.902897 407.276428,60.806572 
	C413.217010,59.240074 411.803162,52.233959 414.426392,47.745331 
	C415.672607,45.612930 416.818939,42.660244 418.743958,41.873329 
	C421.332275,40.815277 422.080200,39.937057 421.641876,37.300053 
	C421.022675,33.574997 422.218292,31.945812 426.381439,33.375175 
	C434.632233,36.208004 434.538666,36.059834 435.726166,27.282074 
	C435.988068,25.346159 437.473419,23.502708 438.635559,21.778572 
	C440.418610,19.133322 442.303345,16.538385 444.361206,14.104966 
	C445.279999,13.018458 446.618500,12.086515 447.954346,11.599154 
	C450.057037,10.831998 452.812164,11.118433 454.404297,9.847700 
	C457.254547,7.572895 459.444824,4.471211 461.955505,1.357579 
	C478.967865,1.000000 495.935760,1.000000 513.000000,1.000000 
	C513.000000,61.020863 513.000000,121.041771 513.000000,181.531342 
	C510.644287,187.222870 502.237518,187.633133 503.066650,195.589279 
	C501.074982,194.783157 499.650421,194.206589 498.207703,193.622665 
	C493.132660,209.535538 493.175446,207.684586 483.943146,205.670441 
	C483.633453,206.822327 483.188934,207.985367 483.020935,209.187057 
	C482.352692,213.967194 478.582245,217.599869 473.824493,218.357208 
	C472.579376,218.555450 470.543854,219.656418 470.481750,220.466354 
	C470.078369,225.724030 467.067261,226.254929 462.868652,225.327301 
	C462.354034,225.213623 461.697479,225.742691 460.490143,226.215179 
	C461.928833,227.513367 463.019684,228.497665 463.953613,229.340393 
	C461.995483,230.381516 459.006653,230.991913 458.410278,232.529968 
	C457.625275,234.554504 458.721252,237.308334 459.047882,240.083694 
	C458.233704,240.359573 457.371124,240.831451 456.468079,240.929184 
	C449.745544,241.656738 448.943726,242.792435 447.589081,249.676834 
	C447.133911,251.989822 445.188080,254.716324 443.144440,255.852829 
	C439.621887,257.811798 435.450500,258.571808 431.623688,260.025146 
	C428.060272,261.378479 424.591003,262.979706 421.263092,264.394073 
	C421.263092,267.373169 421.217102,270.451721 421.273163,273.528412 
	C421.372803,278.998596 419.715515,281.861176 414.572205,281.732330 
	C408.249542,281.574005 406.283081,284.769867 405.109955,289.989929 
	C404.786438,291.429626 403.162933,292.843018 401.774170,293.630981 
	C401.298462,293.900909 399.718109,292.224030 398.097687,291.037811 
	C395.848450,300.789520 390.832581,308.152924 380.072662,307.829437 
	C378.312866,311.122650 376.701904,314.137299 374.582031,317.560455 
	C353.713379,318.035400 333.353668,318.101868 312.529480,318.104736 
	C288.377533,317.972046 264.690063,317.903015 241.029694,317.473389 
	C242.456146,315.664398 244.246750,314.429291 245.176071,312.724640 
	C247.328552,308.776337 249.064407,304.600922 251.129822,300.173248 
	C253.426819,301.902771 255.284760,303.301727 256.674835,304.348389 
	C260.436737,299.652893 263.675293,295.456116 267.083282,291.401733 
	C270.296936,287.578522 273.689026,283.905334 277.467041,280.100586 
	C293.619202,279.969177 309.306946,279.903290 325.459137,279.906494 
	C341.391052,279.440338 356.957336,281.546783 372.321136,278.050293 
	C376.546143,277.088776 380.916473,276.784637 385.196106,276.040710 
	C395.134308,274.313110 402.579895,268.046265 409.669952,261.653290 
	C421.096619,251.350143 424.817291,237.113022 427.997070,222.766617 
	C429.115143,217.722061 429.919220,212.596695 431.269409,207.617416 
	C433.336426,199.994629 435.776337,192.473511 438.012115,184.895721 
	C439.609802,179.480576 441.293579,174.082901 442.641632,168.604279 
	C443.909546,163.451172 444.787842,158.202194 446.012604,152.654480 
	C447.457886,148.523163 448.855011,144.769562 449.968689,140.933670 
	C451.629059,135.214539 452.810913,129.344131 454.696869,123.705505 
	C457.969727,113.920555 459.931274,104.116508 454.909973,94.472206 
	C451.452667,87.831825 447.532684,81.254539 438.846710,79.570435 
	C437.221558,78.511650 435.847290,77.261864 434.358185,77.105461 
	C426.247498,76.253578 418.115723,75.558205 409.976501,75.039467 
	C405.333374,74.743561 400.662231,74.886841 396.003723,74.832367 
M274.199280,290.121277 
	C274.052063,290.092773 273.904816,290.064270 273.757599,290.035736 
	C273.859131,290.104706 273.960632,290.173706 274.199280,290.121277 
z"/>
<path fill="#2B70E3" opacity="1.000000" stroke="none" 
	d="
M1.000000,320.375000 
	C1.167727,320.919891 1.335454,321.839813 1.251590,322.879852 
	C1.000000,322.250000 1.000000,321.500000 1.000000,320.375000 
z"/>
<path fill="#E3E3E3" opacity="1.000000" stroke="none" 
	d="
M409.262207,427.477905 
	C408.870789,438.727692 401.636658,445.453827 393.837189,450.774811 
	C382.632629,458.418854 369.990967,458.237305 357.764252,452.908417 
	C348.965179,449.073364 342.863068,442.642914 339.288544,433.178009 
	C336.753571,426.465607 336.120911,419.747864 337.294464,413.365509 
	C339.159668,403.221100 344.482758,394.633942 353.576660,388.732697 
	C361.396149,383.658417 369.958923,382.277802 378.877686,383.101654 
	C388.287842,383.970886 404.934235,393.695648 407.303741,404.711517 
	C408.580658,410.647797 411.751770,416.204193 410.930023,422.575165 
	C410.731171,424.116791 409.956268,425.584167 409.262207,427.477905 
z"/>
<path fill="#E8E8E8" opacity="1.000000" stroke="none" 
	d="
M161.321777,452.999878 
	C142.259521,459.710327 122.495621,457.098633 112.118820,437.436829 
	C106.924431,427.594635 106.374298,417.455170 110.398476,406.365692 
	C113.517723,397.769867 118.797913,391.758392 125.949455,387.720917 
	C145.140060,376.886780 168.651581,383.463593 177.990097,405.044525 
	C181.535629,413.238129 181.421371,421.530914 179.969803,430.452026 
	C176.094467,436.628906 172.443283,442.537323 168.262405,448.043518 
	C166.685455,450.120239 163.882797,451.266266 161.321777,452.999878 
z"/>
<path fill="#E3E3E3" opacity="1.000000" stroke="none" 
	d="
M312.993958,318.168335 
	C333.353668,318.101868 353.713379,318.035400 374.537659,317.901550 
	C378.998566,317.889313 383.082336,317.442078 386.970459,318.118866 
	C392.628174,319.103760 398.362946,320.360016 403.658356,322.504425 
	C408.598053,324.504761 411.609100,335.980286 409.362976,341.295166 
	C404.513367,352.770477 401.196533,354.994690 388.911163,354.993134 
	C353.582306,354.988617 318.253479,354.981781 282.563904,354.582825 
	C284.245514,351.183411 285.993378,347.915344 288.387512,345.221649 
	C294.599121,338.232697 301.117249,331.516937 307.464203,324.647003 
	C309.389404,322.563171 311.155182,320.332031 312.993958,318.168335 
z"/>
<path fill="#E8E8E8" opacity="1.000000" stroke="none" 
	d="
M312.529480,318.104706 
	C311.155182,320.332031 309.389404,322.563171 307.464203,324.647003 
	C301.117249,331.516937 294.599121,338.232697 288.387512,345.221649 
	C285.993378,347.915344 284.245514,351.183411 282.099670,354.512573 
	C274.974670,354.900818 267.953247,354.966278 260.467346,355.097107 
	C234.310394,355.097504 208.617905,355.032501 182.571655,354.590027 
	C186.819046,349.350586 191.382050,344.451782 196.031586,339.636505 
	C201.151611,334.333954 206.462433,329.210236 211.441406,323.780518 
	C212.761978,322.340393 213.168961,320.062531 214.460052,318.101013 
	C223.617310,317.966431 232.309952,317.900208 241.002579,317.833984 
	C264.690063,317.903015 288.377533,317.972046 312.529480,318.104706 
z"/>
<path fill="#286DDF" opacity="1.000000" stroke="none" 
	d="
M408.525085,286.038086 
	C409.046204,285.515289 409.536804,285.231262 410.027405,284.947235 
	C410.097931,285.506714 410.168457,286.066223 410.238983,286.625732 
	C409.657532,286.509430 409.076050,286.393127 408.525085,286.038086 
z"/>
<path fill="#F2F2F2" opacity="1.000000" stroke="none" 
	d="
M117.899773,331.045166 
	C111.954269,324.278992 109.554184,316.098602 107.922607,307.435791 
	C106.050095,297.493713 103.527946,287.674927 101.371925,277.784302 
	C101.024864,276.192139 101.305084,274.464447 100.967567,272.868744 
	C99.916145,267.897766 98.524895,262.993347 97.614815,257.999451 
	C96.827850,253.681198 96.567612,249.269257 95.974220,244.912399 
	C95.718987,243.038391 95.210320,241.198898 94.466629,239.153549 
	C92.432724,229.943390 90.739799,220.925140 89.068878,211.902786 
	C88.135933,206.865280 87.239532,201.820999 86.626633,196.345383 
	C89.008736,195.364349 91.817986,195.486298 93.044266,194.152679 
	C97.775620,189.007126 101.992722,183.389603 106.424141,177.966507 
	C107.141357,177.088791 107.902725,176.221558 108.763893,175.491226 
	C114.257286,170.832626 121.562752,167.221130 124.889175,161.348862 
	C130.055786,152.228027 140.846497,148.810059 144.856415,139.120270 
	C145.128006,138.463989 146.206223,138.183090 146.794678,137.609924 
	C152.364395,132.184998 158.048401,126.867905 163.426071,121.257675 
	C170.156616,114.236084 176.501343,106.844101 183.247787,99.838478 
	C190.865005,91.928627 200.595322,85.907455 204.996124,75.165855 
	C233.685699,75.122566 262.375275,75.079277 291.485779,75.444679 
	C288.273956,79.741501 284.710968,83.698051 280.986328,87.496094 
	C278.009705,90.531418 274.613770,93.178589 271.819946,96.363007 
	C269.539551,98.962219 268.239960,102.451134 265.864807,104.932228 
	C259.724731,111.346230 253.161591,117.353104 246.916107,123.669586 
	C244.834534,125.774811 243.336349,128.445862 241.340591,130.649109 
	C236.916641,135.532974 232.398178,140.334351 227.818665,145.073120 
	C224.487869,148.519775 220.982681,151.797318 217.583023,155.178207 
	C214.700104,158.045197 211.856979,160.952194 208.570404,163.904755 
	C197.971832,164.075058 190.068527,171.707489 191.134903,181.204086 
	C191.766830,186.831711 195.160110,191.398331 199.701630,194.943954 
	C201.542282,196.380981 203.367310,197.850388 205.086685,199.427963 
	C209.234711,203.233902 213.308014,207.121109 217.427475,210.958374 
	C220.308685,213.642212 223.216339,216.297653 225.867920,219.208160 
	C224.738541,220.436218 224.041336,221.850586 222.936508,222.334839 
	C217.568497,224.687622 214.643021,229.043945 212.469711,234.168091 
	C212.170181,234.874313 211.403229,235.394455 210.818359,235.965607 
	C203.968933,242.654144 197.006393,249.231064 190.292328,256.052643 
	C184.885483,261.546051 179.693573,267.259155 174.581116,273.029663 
	C172.783386,275.058777 171.504822,277.547821 169.525269,279.891052 
	C161.423050,279.966339 153.784805,279.979706 146.146545,279.987732 
	C139.116547,279.995117 139.132492,279.988586 140.865875,286.922333 
	C141.062637,287.709412 140.863068,288.588654 141.005478,289.397339 
	C141.921555,294.599060 142.881714,299.792999 143.506622,305.096741 
	C138.509933,308.880707 136.364349,315.817474 129.081055,316.164429 
	C128.868988,316.174530 128.675903,316.649628 128.479446,316.912018 
	C124.952385,321.622711 121.426163,326.333984 117.899773,331.045166 
z"/>
<path fill="#ECECEC" opacity="1.000000" stroke="none" 
	d="
M208.996246,163.841476 
	C211.856979,160.952194 214.700104,158.045197 217.583023,155.178207 
	C220.982681,151.797318 224.487869,148.519775 227.818665,145.073120 
	C232.398178,140.334351 236.916641,135.532974 241.340591,130.649109 
	C243.336349,128.445862 244.834534,125.774811 246.916107,123.669586 
	C253.161591,117.353104 259.724731,111.346230 265.864807,104.932228 
	C268.239960,102.451134 269.539551,98.962219 271.819946,96.363007 
	C274.613770,93.178589 278.009705,90.531418 280.986328,87.496094 
	C284.710968,83.698051 288.273956,79.741501 291.950378,75.507378 
	C321.034912,75.107872 350.075836,75.054794 379.116760,75.000267 
	C382.436005,74.994034 385.755280,74.979652 389.935181,74.965370 
	C391.862701,74.918526 392.929596,74.875359 393.996490,74.832191 
	C394.443970,74.875854 394.891418,74.919510 395.671326,74.897766 
	C400.662231,74.886841 405.333374,74.743561 409.976501,75.039467 
	C418.115723,75.558205 426.247498,76.253578 434.358185,77.105461 
	C435.847290,77.261864 437.221558,78.511650 438.760132,79.921219 
	C436.352325,83.579948 433.970428,86.703537 431.290283,89.545914 
	C420.054993,101.461311 408.843048,113.402435 397.406097,125.122902 
	C386.403259,136.398499 375.011108,147.294647 364.025513,158.586578 
	C356.980316,165.828217 350.448151,173.566055 343.529144,180.934174 
	C335.363098,189.630295 326.958130,198.102036 318.788696,206.795105 
	C312.668915,213.307190 306.945343,220.198700 300.703308,226.587006 
	C293.915863,233.533493 286.538391,239.904495 279.771881,246.870041 
	C271.298035,255.593094 263.130188,264.616913 254.961151,273.629547 
	C253.336273,275.422180 252.302078,277.750244 250.531067,279.895996 
	C223.374161,279.916016 196.681671,279.871429 169.989197,279.826843 
	C171.504822,277.547821 172.783386,275.058777 174.581116,273.029663 
	C179.693573,267.259155 184.885483,261.546051 190.292328,256.052643 
	C197.006393,249.231064 203.968933,242.654144 210.818359,235.965607 
	C211.403229,235.394455 212.170181,234.874313 212.469711,234.168091 
	C214.643021,229.043945 217.568497,224.687622 222.936508,222.334839 
	C224.041336,221.850586 224.738541,220.436218 226.180038,219.350708 
	C233.683777,224.861374 240.809799,230.267517 247.527527,236.140686 
	C254.076584,241.866379 267.923706,241.314453 273.065460,234.283783 
	C276.778015,229.207336 279.766998,223.598404 283.032593,218.199066 
	C288.452515,209.237671 293.806152,200.236145 299.243225,191.285233 
	C303.447449,184.363937 307.849213,177.560593 311.959106,170.584595 
	C316.971008,162.077515 321.457703,153.246109 326.756195,144.927353 
	C331.195312,137.957809 334.279663,131.504807 329.113922,123.422020 
	C326.400757,119.176765 322.845978,116.879082 318.294769,116.087830 
	C312.225098,115.032585 306.082153,116.129761 302.530914,121.339355 
	C295.702850,131.356079 289.578888,141.862762 283.374817,152.292297 
	C276.116364,164.494263 269.128265,176.856766 261.925629,189.092361 
	C259.895996,192.540192 257.525269,195.787201 255.021042,199.563568 
	C250.489471,195.031342 246.544113,190.611328 242.107376,186.756927 
	C235.111206,180.679016 227.624802,175.163239 220.666016,169.045380 
	C217.197754,165.996216 213.846207,163.443024 208.996246,163.841476 
z"/>
<path fill="#F6F6F6" opacity="1.000000" stroke="none" 
	d="
M204.531784,75.099815 
	C200.595322,85.907455 190.865005,91.928627 183.247787,99.838478 
	C176.501343,106.844101 170.156616,114.236084 163.426071,121.257675 
	C158.048401,126.867905 152.364395,132.184998 146.794678,137.609924 
	C146.206223,138.183090 145.128006,138.463989 144.856415,139.120270 
	C140.846497,148.810059 130.055786,152.228027 124.889175,161.348862 
	C121.562752,167.221130 114.257286,170.832626 108.763893,175.491226 
	C107.902725,176.221558 107.141357,177.088791 106.424141,177.966507 
	C101.992722,183.389603 97.775620,189.007126 93.044266,194.152679 
	C91.817986,195.486298 89.008736,195.364349 86.546242,195.953430 
	C85.021790,186.986206 84.010529,178.010437 80.410789,169.454208 
	C79.006577,166.116516 79.658638,161.968704 78.941696,158.273788 
	C77.910416,152.958847 76.329147,147.751144 75.280983,142.438782 
	C74.584404,138.908401 74.512947,135.259369 73.970245,131.692581 
	C73.440689,128.212296 72.574509,124.783875 72.021729,121.306366 
	C70.948158,114.552681 70.131775,107.755196 68.922791,101.027267 
	C68.356552,97.876160 67.566254,94.606621 66.066963,91.828133 
	C64.669304,89.237991 62.251820,87.759163 58.672832,87.900703 
	C49.695095,88.255775 40.683762,88.278152 31.706221,87.921898 
	C26.568426,87.718025 21.332132,87.013649 16.385159,85.647522 
	C7.888105,83.301033 3.051788,69.486336 7.058086,61.533295 
	C10.693523,54.316456 16.482788,51.898205 24.033808,51.949085 
	C36.688274,52.034359 49.352119,51.685730 61.996559,52.052544 
	C77.042404,52.489017 88.707077,58.957966 96.347832,72.375458 
	C97.237595,73.937912 100.495567,74.869186 102.661697,74.880020 
	C136.463028,75.049149 170.265350,75.018410 204.531784,75.099815 
z"/>
<path fill="#286DDF" opacity="1.000000" stroke="none" 
	d="
M393.952454,74.498474 
	C392.929596,74.875359 391.862701,74.918526 390.399658,74.896866 
	C390.517822,73.756165 391.032196,72.680283 391.546570,71.604401 
	C392.333832,72.457840 393.121094,73.311295 393.952454,74.498474 
z"/>
<path fill="#ECECEC" opacity="1.000000" stroke="none" 
	d="
M118.045929,331.365845 
	C121.426163,326.333984 124.952385,321.622711 128.479446,316.912018 
	C128.675903,316.649628 128.868988,316.174530 129.081055,316.164429 
	C136.364349,315.817474 138.509933,308.880707 143.579773,305.460815 
	C146.363846,312.412872 154.082123,317.960602 161.173141,317.992188 
	C178.780487,318.070587 196.388000,318.112671 213.995422,318.169312 
	C213.168961,320.062531 212.761978,322.340393 211.441406,323.780518 
	C206.462433,329.210236 201.151611,334.333954 196.031586,339.636505 
	C191.382050,344.451782 186.819046,349.350586 182.107178,354.521667 
	C174.040390,354.885040 165.961334,355.822388 158.164032,354.736572 
	C150.873138,353.721283 143.261505,352.452179 136.876541,347.977692 
	C132.139038,344.657776 127.202362,341.592834 122.692406,337.991150 
	C120.751740,336.441254 119.666145,333.820648 118.045929,331.365845 
z"/>
<path fill="#266BDC" opacity="1.000000" stroke="none" 
	d="
M235.857574,376.996490 
	C234.955246,376.155548 234.327454,375.230682 233.699646,374.305847 
	C234.370987,374.086456 235.042328,373.867065 235.713654,373.647675 
	C235.853134,374.735992 235.992615,375.824280 235.857574,376.996490 
z"/>
<path fill="#266BDC" opacity="1.000000" stroke="none" 
	d="
M143.018646,470.817688 
	C142.133469,470.686127 141.438690,470.359680 140.743912,470.033234 
	C141.243835,469.538177 141.743774,469.043121 142.243698,468.548065 
	C142.565475,469.239655 142.887253,469.931244 143.018646,470.817688 
z"/>
<path fill="#E8E8E8" opacity="1.000000" stroke="none" 
	d="
M250.995499,279.831421 
	C252.302078,277.750244 253.336273,275.422180 254.961151,273.629547 
	C263.130188,264.616913 271.298035,255.593094 279.771881,246.870041 
	C286.538391,239.904495 293.915863,233.533493 300.703308,226.587006 
	C306.945343,220.198700 312.668915,213.307190 318.788696,206.795105 
	C326.958130,198.102036 335.363098,189.630295 343.529144,180.934174 
	C350.448151,173.566055 356.980316,165.828217 364.025513,158.586578 
	C375.011108,147.294647 386.403259,136.398499 397.406097,125.122902 
	C408.843048,113.402435 420.054993,101.461311 431.290283,89.545914 
	C433.970428,86.703537 436.352325,83.579948 438.958008,80.234909 
	C447.532684,81.254539 451.452667,87.831825 454.909973,94.472206 
	C459.931274,104.116508 457.969727,113.920555 454.696869,123.705505 
	C452.810913,129.344131 451.629059,135.214539 449.968689,140.933670 
	C448.855011,144.769562 447.457886,148.523163 445.696045,152.760498 
	C441.720947,156.560272 438.115540,159.796753 434.779083,163.290054 
	C427.688782,170.713562 420.646179,178.187576 413.776001,185.813843 
	C411.025574,188.866913 409.475006,193.626297 406.182220,195.453308 
	C394.128357,202.141418 387.514618,214.185349 377.669037,222.999832 
	C370.901978,229.058212 365.232666,236.334457 358.984589,242.983597 
	C354.011719,248.275696 348.910797,253.447601 343.856445,258.662903 
	C341.462860,261.132721 339.443604,264.311890 336.554901,265.882568 
	C330.678436,269.077789 328.521820,274.938263 324.994659,279.837402 
	C309.306946,279.903290 293.619202,279.969177 277.002472,280.033325 
	C267.714142,279.964844 259.354828,279.898132 250.995499,279.831421 
z"/>
<path fill="#E3E3E3" opacity="1.000000" stroke="none" 
	d="
M325.459137,279.906494 
	C328.521820,274.938263 330.678436,269.077789 336.554901,265.882568 
	C339.443604,264.311890 341.462860,261.132721 343.856445,258.662903 
	C348.910797,253.447601 354.011719,248.275696 358.984589,242.983597 
	C365.232666,236.334457 370.901978,229.058212 377.669037,222.999832 
	C387.514618,214.185349 394.128357,202.141418 406.182220,195.453308 
	C409.475006,193.626297 411.025574,188.866913 413.776001,185.813843 
	C420.646179,178.187576 427.688782,170.713562 434.779083,163.290054 
	C438.115540,159.796753 441.720947,156.560272 445.521057,153.101410 
	C444.787842,158.202194 443.909546,163.451172 442.641632,168.604279 
	C441.293579,174.082901 439.609802,179.480576 438.012115,184.895721 
	C435.776337,192.473511 433.336426,199.994629 431.269409,207.617416 
	C429.919220,212.596695 429.115143,217.722061 427.997070,222.766617 
	C424.817291,237.113022 421.096619,251.350143 409.669952,261.653290 
	C402.579895,268.046265 395.134308,274.313110 385.196106,276.040710 
	C380.916473,276.784637 376.546143,277.088776 372.321136,278.050293 
	C356.957336,281.546783 341.391052,279.440338 325.459137,279.906494 
z"/>
<path fill="#296FE1" opacity="1.000000" stroke="none" 
	d="
M250.531067,279.895996 
	C259.354828,279.898132 267.714142,279.964844 276.538025,280.098877 
	C273.689026,283.905334 270.296936,287.578522 267.083282,291.401733 
	C263.675293,295.456116 260.436737,299.652893 256.674835,304.348389 
	C255.284760,303.301727 253.426819,301.902771 251.129822,300.173248 
	C249.064407,304.600922 247.328552,308.776337 245.176071,312.724640 
	C244.246750,314.429291 242.456146,315.664398 241.029694,317.473389 
	C232.309952,317.900208 223.617310,317.966431 214.460052,318.101013 
	C196.388000,318.112671 178.780487,318.070587 161.173141,317.992188 
	C154.082123,317.960602 146.363846,312.412872 143.900543,305.353607 
	C142.881714,299.792999 141.921555,294.599060 141.005478,289.397339 
	C140.863068,288.588654 141.062637,287.709412 140.865875,286.922333 
	C139.132492,279.988586 139.116547,279.995117 146.146545,279.987732 
	C153.784805,279.979706 161.423050,279.966339 169.525253,279.891052 
	C196.681671,279.871429 223.374161,279.916016 250.531067,279.895996 
z"/>
<path fill="#296FE1" opacity="1.000000" stroke="none" 
	d="
M274.130737,290.182007 
	C273.960632,290.173706 273.859131,290.104706 273.757599,290.035736 
	C273.904816,290.064270 274.052063,290.092773 274.130737,290.182007 
z"/>
<path fill="#296FE1" opacity="1.000000" stroke="none" 
	d="
M208.570404,163.904755 
	C213.846207,163.443024 217.197754,165.996216 220.666016,169.045380 
	C227.624802,175.163239 235.111206,180.679016 242.107376,186.756927 
	C246.544113,190.611328 250.489471,195.031342 255.021042,199.563568 
	C257.525269,195.787201 259.895996,192.540192 261.925629,189.092361 
	C269.128265,176.856766 276.116364,164.494263 283.374817,152.292297 
	C289.578888,141.862762 295.702850,131.356079 302.530914,121.339355 
	C306.082153,116.129761 312.225098,115.032585 318.294769,116.087830 
	C322.845978,116.879082 326.400757,119.176765 329.113922,123.422020 
	C334.279663,131.504807 331.195312,137.957809 326.756195,144.927353 
	C321.457703,153.246109 316.971008,162.077515 311.959106,170.584595 
	C307.849213,177.560593 303.447449,184.363937 299.243225,191.285233 
	C293.806152,200.236145 288.452515,209.237671 283.032593,218.199066 
	C279.766998,223.598404 276.778015,229.207336 273.065460,234.283783 
	C267.923706,241.314453 254.076584,241.866379 247.527527,236.140686 
	C240.809799,230.267517 233.683777,224.861374 226.424316,219.108292 
	C223.216339,216.297653 220.308685,213.642212 217.427475,210.958374 
	C213.308014,207.121109 209.234711,203.233902 205.086685,199.427963 
	C203.367310,197.850388 201.542282,196.380981 199.701630,194.943954 
	C195.160110,191.398331 191.766830,186.831711 191.134903,181.204086 
	C190.068527,171.707489 197.971832,164.075058 208.570404,163.904755 
z"/>
</svg>