<?xml version="1.0" encoding="UTF-8"?>
<svg version="1.1" xmlns="http://www.w3.org/2000/svg" width="512" height="512">
<path d="M0 0 C0.6737265 -0.00043808 1.347453 -0.00087616 2.04159546 -0.00132751 C4.2548381 0.00075226 6.46731063 0.02404351 8.68041992 0.04760742 C10.22026658 0.0532063 11.76011861 0.05747502 13.29997253 0.06047058 C17.34262988 0.0718965 21.38496123 0.10134395 25.42749023 0.13458252 C29.55667715 0.16533222 33.68591701 0.17898636 37.81518555 0.1940918 C45.90973579 0.2262161 54.00402162 0.27738483 62.09838867 0.34057617 C62.09838867 1.00057617 62.09838867 1.66057617 62.09838867 2.34057617 C64.07838867 2.34057617 66.05838867 2.34057617 68.09838867 2.34057617 C68.09838867 3.00057617 68.09838867 3.66057617 68.09838867 4.34057617 C69.41838867 4.34057617 70.73838867 4.34057617 72.09838867 4.34057617 C72.09838867 5.00057617 72.09838867 5.66057617 72.09838867 6.34057617 C72.75838867 6.34057617 73.41838867 6.34057617 74.09838867 6.34057617 C74.09838867 7.00057617 74.09838867 7.66057617 74.09838867 8.34057617 C76.07838867 9.00057617 78.05838867 9.66057617 80.09838867 10.34057617 C80.09838867 11.00057617 80.09838867 11.66057617 80.09838867 12.34057617 C80.75838867 12.34057617 81.41838867 12.34057617 82.09838867 12.34057617 C82.09838867 13.66057617 82.09838867 14.98057617 82.09838867 16.34057617 C83.41838867 17.00057617 84.73838867 17.66057617 86.09838867 18.34057617 C86.09838867 19.00057617 86.09838867 19.66057617 86.09838867 20.34057617 C86.75838867 20.34057617 87.41838867 20.34057617 88.09838867 20.34057617 C88.59338867 22.32057617 88.59338867 22.32057617 89.09838867 24.34057617 C90.27535621 24.34318055 90.27535621 24.34318055 91.47610086 24.34583753 C137.92972992 24.44875557 184.38334445 24.55684413 230.83694562 24.67169311 C236.40854959 24.6854635 241.98015367 24.69919048 247.55175781 24.71289062 C248.66101358 24.71561893 249.77026935 24.71834723 250.91313893 24.72115821 C268.8991009 24.76529248 286.88506919 24.80590565 304.87104224 24.84522878 C323.31172915 24.88562402 341.75240427 24.92977709 360.19307381 24.97745472 C371.58167133 25.00677997 382.97026792 25.03313673 394.35888077 25.05575515 C402.15722394 25.07152323 409.95555268 25.09092507 417.75387984 25.11324459 C422.26022098 25.12603295 426.76655091 25.13716165 431.27290535 25.14399529 C435.39140209 25.15027592 439.5098603 25.16107763 443.62833596 25.17560948 C445.12497493 25.18006814 446.62162012 25.18280954 448.11826544 25.18373816 C450.13928427 25.18523313 452.16029505 25.19336304 454.18129635 25.20191097 C455.30792657 25.20456901 456.43455679 25.20722706 457.59532732 25.20996565 C460.09838867 25.34057617 460.09838867 25.34057617 461.09838867 26.34057617 C462.94730814 26.57421498 464.80326899 26.75361252 466.66088867 26.90307617 C467.67280273 26.98686523 468.6847168 27.0706543 469.72729492 27.15698242 C470.90098633 27.24786133 470.90098633 27.24786133 472.09838867 27.34057617 C472.09838867 28.00057617 472.09838867 28.66057617 472.09838867 29.34057617 C473.41838867 29.34057617 474.73838867 29.34057617 476.09838867 29.34057617 C476.09838867 30.00057617 476.09838867 30.66057617 476.09838867 31.34057617 C477.41838867 31.34057617 478.73838867 31.34057617 480.09838867 31.34057617 C480.09838867 32.00057617 480.09838867 32.66057617 480.09838867 33.34057617 C481.41838867 33.34057617 482.73838867 33.34057617 484.09838867 33.34057617 C484.09838867 34.00057617 484.09838867 34.66057617 484.09838867 35.34057617 C484.75838867 35.34057617 485.41838867 35.34057617 486.09838867 35.34057617 C486.09838867 36.00057617 486.09838867 36.66057617 486.09838867 37.34057617 C486.75838867 37.34057617 487.41838867 37.34057617 488.09838867 37.34057617 C488.09838867 38.00057617 488.09838867 38.66057617 488.09838867 39.34057617 C488.75838867 39.34057617 489.41838867 39.34057617 490.09838867 39.34057617 C490.09838867 40.66057617 490.09838867 41.98057617 490.09838867 43.34057617 C490.75838867 43.34057617 491.41838867 43.34057617 492.09838867 43.34057617 C492.09838867 44.00057617 492.09838867 44.66057617 492.09838867 45.34057617 C492.75838867 45.34057617 493.41838867 45.34057617 494.09838867 45.34057617 C494.09838867 46.66057617 494.09838867 47.98057617 494.09838867 49.34057617 C494.75838867 49.34057617 495.41838867 49.34057617 496.09838867 49.34057617 C496.09838867 58.91057617 496.09838867 68.48057617 496.09838867 78.34057617 C495.43838867 78.34057617 494.77838867 78.34057617 494.09838867 78.34057617 C494.09838867 80.32057617 494.09838867 82.30057617 494.09838867 84.34057617 C493.43838867 84.34057617 492.77838867 84.34057617 492.09838867 84.34057617 C492.09838867 86.98057617 492.09838867 89.62057617 492.09838867 92.34057617 C491.43838867 92.34057617 490.77838867 92.34057617 490.09838867 92.34057617 C490.09838867 94.98057617 490.09838867 97.62057617 490.09838867 100.34057617 C489.43838867 100.34057617 488.77838867 100.34057617 488.09838867 100.34057617 C488.09838867 101.99057617 488.09838867 103.64057617 488.09838867 105.34057617 C487.43838867 105.34057617 486.77838867 105.34057617 486.09838867 105.34057617 C486.28401367 106.28932617 486.46963867 107.23807617 486.66088867 108.21557617 C487.09838867 111.34057617 487.09838867 111.34057617 486.09838867 113.34057617 C485.43838867 113.34057617 484.77838867 113.34057617 484.09838867 113.34057617 C484.13319336 114.2280957 484.13319336 114.2280957 484.16870117 115.13354492 C484.18674805 115.92374023 484.20479492 116.71393555 484.22338867 117.52807617 C484.2465918 118.30538086 484.26979492 119.08268555 484.29370117 119.88354492 C484.06867366 122.71439105 483.17624291 124.71741119 482.09838867 127.34057617 C481.53917988 129.74865231 481.02023028 132.1663323 480.53588867 134.59057617 C479.20604107 141.23292377 479.20604107 141.23292377 478.09838867 142.34057617 C477.95401367 143.39245117 477.80963867 144.44432617 477.66088867 145.52807617 C477.14535637 149.02223954 476.30795886 152.03441766 475.09838867 155.34057617 C474.43838867 155.34057617 473.77838867 155.34057617 473.09838867 155.34057617 C473.13319336 155.90905273 473.16799805 156.4775293 473.20385742 157.06323242 C473.39859736 162.61795719 472.58712093 166.26739119 470.09838867 171.34057617 C468.15531703 176.30620371 467.54361622 181.06814468 467.09838867 186.34057617 C466.43838867 186.34057617 465.77838867 186.34057617 465.09838867 186.34057617 C465.09838867 188.32057617 465.09838867 190.30057617 465.09838867 192.34057617 C464.43838867 192.34057617 463.77838867 192.34057617 463.09838867 192.34057617 C463.12932617 194.28963867 463.12932617 194.28963867 463.16088867 196.27807617 C463.18238322 197.6322325 463.16987066 198.988137 463.09838867 200.34057617 C462.76838867 200.67057617 462.43838867 201.00057617 462.09838867 201.34057617 C462.05775035 203.00674732 462.05566767 204.67445712 462.09838867 206.34057617 C461.10838867 206.67057617 460.11838867 207.00057617 459.09838867 207.34057617 C459.09838867 209.98057617 459.09838867 212.62057617 459.09838867 215.34057617 C458.43838867 215.34057617 457.77838867 215.34057617 457.09838867 215.34057617 C457.09838867 216.66057617 457.09838867 217.98057617 457.09838867 219.34057617 C456.43838867 219.34057617 455.77838867 219.34057617 455.09838867 219.34057617 C454.97463867 220.41307617 454.85088867 221.48557617 454.72338867 222.59057617 C453.86064005 227.76706789 453.21102899 229.43655591 449.09838867 232.77807617 C446.14083574 235.3043193 445.14441215 236.67949399 444.09838867 240.34057617 C442.77838867 240.34057617 441.45838867 240.34057617 440.09838867 240.34057617 C440.09838867 241.00057617 440.09838867 241.66057617 440.09838867 242.34057617 C439.43838867 242.34057617 438.77838867 242.34057617 438.09838867 242.34057617 C438.09838867 243.00057617 438.09838867 243.66057617 438.09838867 244.34057617 C437.43838867 244.34057617 436.77838867 244.34057617 436.09838867 244.34057617 C436.09838867 245.00057617 436.09838867 245.66057617 436.09838867 246.34057617 C433.09838867 248.34057617 433.09838867 248.34057617 430.09838867 248.34057617 C430.09838867 249.00057617 430.09838867 249.66057617 430.09838867 250.34057617 C428.77838867 250.34057617 427.45838867 250.34057617 426.09838867 250.34057617 C426.09838867 251.00057617 426.09838867 251.66057617 426.09838867 252.34057617 C424.77838867 252.34057617 423.45838867 252.34057617 422.09838867 252.34057617 C422.09838867 253.00057617 422.09838867 253.66057617 422.09838867 254.34057617 C414.17449387 258.62107211 406.57261002 258.91744768 397.78198242 259.16479492 C394.29756402 258.91720142 394.29756402 258.91720142 393.09838867 260.34057617 C391.72765812 260.44197169 390.35176157 260.47454119 388.97729397 260.47924137 C388.08355365 260.48471582 387.18981334 260.49019026 386.26898998 260.4958306 C384.7792351 260.49729776 384.7792351 260.49729776 383.25938416 260.49879456 C382.21314033 260.50373253 381.1668965 260.50867051 380.08894831 260.51375812 C376.554255 260.52921696 373.01957996 260.53751632 369.48486328 260.54589844 C366.9625787 260.55547038 364.44029575 260.56548005 361.91801453 260.57589722 C356.47284931 260.59739483 351.02768721 260.61582466 345.58250237 260.63150215 C337.70959466 260.65417466 329.83671408 260.68232107 321.96382935 260.71182143 C309.19188127 260.75952953 296.41992211 260.80278496 283.64794922 260.84326172 C271.23810972 260.8826003 258.82828007 260.92402257 246.41845703 260.96826172 C245.65404889 260.97098599 244.88964074 260.97371026 244.10206871 260.97651709 C240.26741699 260.9901963 236.4327654 261.00391662 232.59811389 261.0176574 C200.76489242 261.13167271 168.9316504 261.23839702 137.09838867 261.34057617 C137.40637193 262.82068988 137.71990667 264.29964942 138.03588867 265.77807617 C138.20991211 266.60178711 138.38393555 267.42549805 138.56323242 268.27416992 C138.90591861 270.31718821 138.90591861 270.31718821 140.09838867 271.34057617 C140.25786606 273.21295887 140.37559975 275.08896025 140.47338867 276.96557617 C140.97805669 283.59722937 141.98284098 288.7122235 147.09838867 293.34057617 C147.09838867 294.00057617 147.09838867 294.66057617 147.09838867 295.34057617 C147.75838867 295.34057617 148.41838867 295.34057617 149.09838867 295.34057617 C149.09838867 296.00057617 149.09838867 296.66057617 149.09838867 297.34057617 C150.23276367 297.48495117 151.36713867 297.62932617 152.53588867 297.77807617 C156.09838867 298.34057617 156.09838867 298.34057617 157.09838867 299.34057617 C158.5264887 299.44215762 159.95957391 299.47454727 161.39127445 299.47924137 C162.32333212 299.48471582 163.25538979 299.49019026 164.21569163 299.4958306 C165.25166198 299.4968087 166.28763233 299.49778681 167.35499573 299.49879456 C168.99174009 299.50620152 168.99174009 299.50620152 170.66154999 299.51375812 C174.34825826 299.52921782 178.03494901 299.53751655 181.72167969 299.54589844 C184.3523372 299.55547031 186.98299316 299.56547997 189.61364746 299.57589722 C195.29290089 299.59769128 200.97215665 299.615825 206.65143013 299.63150215 C214.86279714 299.65417417 223.07413813 299.68232064 231.28548311 299.71182143 C244.60648899 299.75953014 257.92750549 299.8027854 271.24853516 299.84326172 C284.19190294 299.88259999 297.13526128 299.92402219 310.07861328 299.96826172 C311.27451092 299.97234813 311.27451092 299.97234813 312.49456812 299.97651709 C316.49404463 299.99019629 320.49352099 300.00391662 324.49299729 300.0176574 C357.69477495 300.13167366 390.89657221 300.23847159 424.09838867 300.34057617 C424.09838867 301.00057617 424.09838867 301.66057617 424.09838867 302.34057617 C425.12963867 302.25807617 426.16088867 302.17557617 427.22338867 302.09057617 C431.74443343 302.38225648 433.56295412 303.60864948 437.09838867 306.34057617 C438.08838867 307.00057617 439.07838867 307.66057617 440.09838867 308.34057617 C440.09838867 309.66057617 440.09838867 310.98057617 440.09838867 312.34057617 C440.75838867 312.34057617 441.41838867 312.34057617 442.09838867 312.34057617 C442.09838867 313.66057617 442.09838867 314.98057617 442.09838867 316.34057617 C442.75838867 316.34057617 443.41838867 316.34057617 444.09838867 316.34057617 C444.46740917 329.01028004 444.46740917 329.01028004 442.09838867 334.34057617 C441.43838867 334.34057617 440.77838867 334.34057617 440.09838867 334.34057617 C440.09838867 335.00057617 440.09838867 335.66057617 440.09838867 336.34057617 C439.43838867 336.34057617 438.77838867 336.34057617 438.09838867 336.34057617 C438.09838867 337.66057617 438.09838867 338.98057617 438.09838867 340.34057617 C435.01029172 342.105203 433.86526732 342.34057617 430.09838867 342.34057617 C430.09838867 343.00057617 430.09838867 343.66057617 430.09838867 344.34057617 C337.69838867 344.34057617 245.29838867 344.34057617 150.09838867 344.34057617 C150.09838867 343.68057617 150.09838867 343.02057617 150.09838867 342.34057617 C148.33495117 342.40245117 148.33495117 342.40245117 146.53588867 342.46557617 C142.44070738 342.46557617 138.97284164 341.73537924 135.09838867 340.34057617 C134.43838867 339.68057617 133.77838867 339.02057617 133.09838867 338.34057617 C131.02964833 337.69805267 131.02964833 337.69805267 129.09838867 337.34057617 C129.09838867 336.68057617 129.09838867 336.02057617 129.09838867 335.34057617 C127.77838867 335.01057617 126.45838867 334.68057617 125.09838867 334.34057617 C125.09838867 333.68057617 125.09838867 333.02057617 125.09838867 332.34057617 C124.47963867 332.03120117 123.86088867 331.72182617 123.22338867 331.40307617 C121.84838867 330.71557617 120.47338867 330.02807617 119.09838867 329.34057617 C119.09838867 328.68057617 119.09838867 328.02057617 119.09838867 327.34057617 C117.77838867 327.34057617 116.45838867 327.34057617 115.09838867 327.34057617 C111.97997945 324.22216695 110.59871485 321.71843023 110.09838867 317.34057617 C109.10838867 317.01057617 108.11838867 316.68057617 107.09838867 316.34057617 C105.53588867 314.02807617 105.53588867 314.02807617 104.09838867 311.34057617 C103.70651367 310.72182617 103.31463867 310.10307617 102.91088867 309.46557617 C101.74197127 306.40840759 101.97389037 303.5775321 102.09838867 300.34057617 C101.43838867 300.34057617 100.77838867 300.34057617 100.09838867 300.34057617 C100.09838867 299.02057617 100.09838867 297.70057617 100.09838867 296.34057617 C99.43838867 296.34057617 98.77838867 296.34057617 98.09838867 296.34057617 C98.09838867 293.04057617 98.09838867 289.74057617 98.09838867 286.34057617 C97.43838867 286.34057617 96.77838867 286.34057617 96.09838867 286.34057617 C94.83789746 283.81959374 95.03375399 282.08564537 95.09838867 279.27807617 C95.13615969 277.63267631 95.14481346 275.98575461 95.09838867 274.34057617 C94.76838867 274.01057617 94.43838867 273.68057617 94.09838867 273.34057617 C93.95723706 270.66998766 94.0559176 268.0162538 94.09838867 265.34057617 C93.43838867 265.34057617 92.77838867 265.34057617 92.09838867 265.34057617 C92.09838867 262.70057617 92.09838867 260.06057617 92.09838867 257.34057617 C91.43838867 257.34057617 90.77838867 257.34057617 90.09838867 257.34057617 C90.09838867 252.39057617 90.09838867 247.44057617 90.09838867 242.34057617 C89.43838867 242.34057617 88.77838867 242.34057617 88.09838867 242.34057617 C88.09838867 240.36057617 88.09838867 238.38057617 88.09838867 236.34057617 C87.43838867 236.34057617 86.77838867 236.34057617 86.09838867 236.34057617 C86.03780273 235.70249023 85.9772168 235.0644043 85.91479492 234.40698242 C85.83100586 233.58069336 85.7472168 232.7544043 85.66088867 231.90307617 C85.53907227 230.66750977 85.53907227 230.66750977 85.41479492 229.40698242 C85.30908053 227.35395592 85.30908053 227.35395592 84.09838867 226.34057617 C83.77312162 222.97948333 83.58479407 219.61723627 83.37963867 216.24682617 C83.41978977 213.45007485 83.41978977 213.45007485 82.09838867 212.34057617 C82.0574593 210.00760184 82.05597144 207.67352393 82.09838867 205.34057617 C81.43838867 205.34057617 80.77838867 205.34057617 80.09838867 205.34057617 C80.03780273 204.70249023 79.9772168 204.0644043 79.91479492 203.40698242 C79.83100586 202.58069336 79.7472168 201.7544043 79.66088867 200.90307617 C79.53907227 199.66750977 79.53907227 199.66750977 79.41479492 198.40698242 C79.30908053 196.35395592 79.30908053 196.35395592 78.09838867 195.34057617 C77.91135214 193.67802919 77.77448522 192.00974991 77.66088867 190.34057617 C77.37040564 186.70953823 76.93241602 183.3073634 76.03588867 179.77807617 C74.85643643 174.955427 74.91282252 170.27869767 75.09838867 165.34057617 C74.43838867 165.34057617 73.77838867 165.34057617 73.09838867 165.34057617 C73.02491211 164.20168945 73.02491211 164.20168945 72.94995117 163.03979492 C72.83780273 161.54899414 72.83780273 161.54899414 72.72338867 160.02807617 C72.61897461 158.54887695 72.61897461 158.54887695 72.51245117 157.03979492 C72.25973395 154.12529184 72.25973395 154.12529184 70.09838867 151.34057617 C69.76505534 145.00724284 69.76505534 145.00724284 71.09838867 142.34057617 C70.43838867 142.34057617 69.77838867 142.34057617 69.09838867 142.34057617 C66.6577428 136.69658259 66.90549769 131.36306139 67.09838867 125.34057617 C66.43838867 125.34057617 65.77838867 125.34057617 65.09838867 125.34057617 C65.09838867 121.38057617 65.09838867 117.42057617 65.09838867 113.34057617 C64.43838867 113.34057617 63.77838867 113.34057617 63.09838867 113.34057617 C63.09838867 110.70057617 63.09838867 108.06057617 63.09838867 105.34057617 C62.43838867 105.34057617 61.77838867 105.34057617 61.09838867 105.34057617 C61.03780273 104.55811523 60.9772168 103.7756543 60.91479492 102.96948242 C60.83100586 101.95756836 60.7472168 100.9456543 60.66088867 99.90307617 C60.57967773 98.89374023 60.4984668 97.8844043 60.41479492 96.84448242 C60.36627399 94.40416839 60.36627399 94.40416839 59.09838867 93.34057617 C58.77487566 90.50085082 58.58534577 87.6598388 58.37963867 84.80932617 C58.36453602 82.39921567 58.36453602 82.39921567 57.09838867 81.34057617 C57.05775035 79.67440502 57.05566767 78.00669522 57.09838867 76.34057617 C56.43838867 76.34057617 55.77838867 76.34057617 55.09838867 76.34057617 C55.03780273 75.55811523 54.9772168 74.7756543 54.91479492 73.96948242 C54.83100586 72.95756836 54.7472168 71.9456543 54.66088867 70.90307617 C54.57967773 69.89374023 54.4984668 68.8844043 54.41479492 67.84448242 C54.36627399 65.40416839 54.36627399 65.40416839 53.09838867 64.34057617 C52.91227485 62.30218666 52.77494416 60.25926438 52.66088867 58.21557617 C52.30949907 53.29612176 51.97056173 48.91699921 50.09838867 44.34057617 C47.31831399 43.41388461 45.7060707 43.2229556 42.84228516 43.24291992 C41.9880748 43.24622314 41.13386444 43.24952637 40.25376892 43.25292969 C39.33495438 43.26122803 38.41613983 43.26952637 37.46948242 43.27807617 C36.05131981 43.2837561 36.05131981 43.2837561 34.60450745 43.28955078 C31.58158856 43.30177915 28.55876443 43.32041246 25.53588867 43.34057617 C21.55542256 43.36708106 17.5750032 43.3871175 13.59448242 43.40307617 C12.67364365 43.41137451 11.75280487 43.41967285 10.80406189 43.42822266 C9.95300369 43.43152588 9.1019455 43.4348291 8.22509766 43.43823242 C7.47469711 43.44346924 6.72429657 43.44870605 5.95115662 43.45410156 C4.09838867 43.34057617 4.09838867 43.34057617 2.09838867 42.34057617 C2.09838867 41.68057617 2.09838867 41.02057617 2.09838867 40.34057617 C-0.54161133 40.34057617 -3.18161133 40.34057617 -5.90161133 40.34057617 C-5.90161133 39.68057617 -5.90161133 39.02057617 -5.90161133 38.34057617 C-7.22161133 38.34057617 -8.54161133 38.34057617 -9.90161133 38.34057617 C-9.90161133 37.68057617 -9.90161133 37.02057617 -9.90161133 36.34057617 C-10.56161133 36.34057617 -11.22161133 36.34057617 -11.90161133 36.34057617 C-11.90161133 35.68057617 -11.90161133 35.02057617 -11.90161133 34.34057617 C-13.22161133 33.68057617 -14.54161133 33.02057617 -15.90161133 32.34057617 C-16.01835838 28.63251021 -16.08904407 24.92492078 -16.15161133 21.21557617 C-16.18512695 20.16885742 -16.21864258 19.12213867 -16.25317383 18.04370117 C-16.3297773 11.99202704 -16.25142191 7.97149696 -11.90161133 3.34057617 C-7.86193784 0.36123373 -4.97549417 -0.0272879 0 0 Z M322.09838867 79.34057617 C321.45071074 81.91118928 321.45071074 81.91118928 321.09838867 84.34057617 C319.03588867 85.65307617 319.03588867 85.65307617 317.09838867 86.34057617 C317.09838867 87.66057617 317.09838867 88.98057617 317.09838867 90.34057617 C316.43838867 90.34057617 315.77838867 90.34057617 315.09838867 90.34057617 C314.43838867 92.32057617 313.77838867 94.30057617 313.09838867 96.34057617 C312.43838867 96.34057617 311.77838867 96.34057617 311.09838867 96.34057617 C311.09838867 97.66057617 311.09838867 98.98057617 311.09838867 100.34057617 C310.43838867 100.34057617 309.77838867 100.34057617 309.09838867 100.34057617 C308.80963867 100.97995117 308.52088867 101.61932617 308.22338867 102.27807617 C307.09838867 104.34057617 307.09838867 104.34057617 305.09838867 105.34057617 C305.09838867 106.66057617 305.09838867 107.98057617 305.09838867 109.34057617 C304.43838867 109.34057617 303.77838867 109.34057617 303.09838867 109.34057617 C303.09838867 110.66057617 303.09838867 111.98057617 303.09838867 113.34057617 C302.43838867 113.34057617 301.77838867 113.34057617 301.09838867 113.34057617 C300.84444336 113.95545898 300.59049805 114.5703418 300.32885742 115.20385742 C299.81258789 116.4162207 299.81258789 116.4162207 299.28588867 117.65307617 C298.94944336 118.45358398 298.61299805 119.2540918 298.26635742 120.07885742 C297.09838867 122.34057617 297.09838867 122.34057617 295.46166992 123.94604492 C293.74886399 125.37308069 293.74886399 125.37308069 294.09838867 128.34057617 C293.43838867 128.34057617 292.77838867 128.34057617 292.09838867 128.34057617 C292.09838867 129.66057617 292.09838867 130.98057617 292.09838867 132.34057617 C291.43838867 132.34057617 290.77838867 132.34057617 290.09838867 132.34057617 C290.09838867 133.66057617 290.09838867 134.98057617 290.09838867 136.34057617 C289.43838867 136.34057617 288.77838867 136.34057617 288.09838867 136.34057617 C288.09838867 137.00057617 288.09838867 137.66057617 288.09838867 138.34057617 C287.43838867 138.34057617 286.77838867 138.34057617 286.09838867 138.34057617 C286.09838867 139.66057617 286.09838867 140.98057617 286.09838867 142.34057617 C285.43838867 142.34057617 284.77838867 142.34057617 284.09838867 142.34057617 C284.09838867 143.66057617 284.09838867 144.98057617 284.09838867 146.34057617 C283.43838867 146.34057617 282.77838867 146.34057617 282.09838867 146.34057617 C282.09838867 147.00057617 282.09838867 147.66057617 282.09838867 148.34057617 C281.43838867 148.34057617 280.77838867 148.34057617 280.09838867 148.34057617 C280.09838867 149.00057617 280.09838867 149.66057617 280.09838867 150.34057617 C279.43838867 150.34057617 278.77838867 150.34057617 278.09838867 150.34057617 C277.52088867 151.49557617 276.94338867 152.65057617 276.34838867 153.84057617 C275.98358398 154.56631836 275.6187793 155.29206055 275.24291992 156.03979492 C274.49853349 157.53618948 273.76605999 159.03858995 273.04760742 160.54760742 C272.71374023 161.24241211 272.37987305 161.9372168 272.03588867 162.65307617 C271.58536133 163.60633789 271.58536133 163.60633789 271.12573242 164.57885742 C270.00820213 166.49523067 268.72477792 167.84319231 267.09838867 169.34057617 C263.25914991 167.77644186 260.99902635 165.24121385 258.09838867 162.34057617 C256.73713867 161.56713867 256.73713867 161.56713867 255.34838867 160.77807617 C254.60588867 160.30370117 253.86338867 159.82932617 253.09838867 159.34057617 C252.95401367 158.68057617 252.80963867 158.02057617 252.66088867 157.34057617 C252.47526367 156.68057617 252.28963867 156.02057617 252.09838867 155.34057617 C251.25276367 154.92807617 250.40713867 154.51557617 249.53588867 154.09057617 C244.59901247 151.57725738 239.621449 147.38669682 237.09838867 142.34057617 C236.27338867 142.01057617 235.44838867 141.68057617 234.59838867 141.34057617 C232.09838867 140.34057617 232.09838867 140.34057617 231.09838867 138.34057617 C230.43838867 138.34057617 229.77838867 138.34057617 229.09838867 138.34057617 C229.09838867 137.68057617 229.09838867 137.02057617 229.09838867 136.34057617 C222.78048339 130.59702592 218.67727106 128.86593155 210.01635742 129.02416992 C206.07777784 129.45124482 203.96056951 130.62517383 201.09838867 133.34057617 C199.30869841 135.76730184 199.30869841 135.76730184 198.09838867 138.34057617 C197.51057617 139.26870117 197.51057617 139.26870117 196.91088867 140.21557617 C195.17310608 144.76054602 195.73097564 148.9060286 197.59838867 153.27807617 C198.09338867 154.28870117 198.58838867 155.29932617 199.09838867 156.34057617 C199.75838867 156.34057617 200.41838867 156.34057617 201.09838867 156.34057617 C201.09838867 157.00057617 201.09838867 157.66057617 201.09838867 158.34057617 C201.75838867 158.34057617 202.41838867 158.34057617 203.09838867 158.34057617 C203.09838867 159.00057617 203.09838867 159.66057617 203.09838867 160.34057617 C204.41838867 160.34057617 205.73838867 160.34057617 207.09838867 160.34057617 C207.09838867 161.00057617 207.09838867 161.66057617 207.09838867 162.34057617 C207.75838867 162.34057617 208.41838867 162.34057617 209.09838867 162.34057617 C209.09838867 163.00057617 209.09838867 163.66057617 209.09838867 164.34057617 C209.75838867 164.34057617 210.41838867 164.34057617 211.09838867 164.34057617 C211.09838867 165.00057617 211.09838867 165.66057617 211.09838867 166.34057617 C211.75838867 166.34057617 212.41838867 166.34057617 213.09838867 166.34057617 C213.09838867 167.00057617 213.09838867 167.66057617 213.09838867 168.34057617 C213.75838867 168.34057617 214.41838867 168.34057617 215.09838867 168.34057617 C215.32526367 168.95932617 215.55213867 169.57807617 215.78588867 170.21557617 C216.94246187 172.57301723 216.94246187 172.57301723 219.59838867 173.27807617 C222.09838867 174.34057617 222.09838867 174.34057617 223.41088867 176.96557617 C223.63776367 177.74932617 223.86463867 178.53307617 224.09838867 179.34057617 C225.41838867 179.34057617 226.73838867 179.34057617 228.09838867 179.34057617 C228.09838867 180.00057617 228.09838867 180.66057617 228.09838867 181.34057617 C228.75838867 181.34057617 229.41838867 181.34057617 230.09838867 181.34057617 C230.09838867 182.00057617 230.09838867 182.66057617 230.09838867 183.34057617 C230.75838867 183.34057617 231.41838867 183.34057617 232.09838867 183.34057617 C232.09838867 184.00057617 232.09838867 184.66057617 232.09838867 185.34057617 C232.75838867 185.34057617 233.41838867 185.34057617 234.09838867 185.34057617 C234.09838867 186.00057617 234.09838867 186.66057617 234.09838867 187.34057617 C234.75838867 187.34057617 235.41838867 187.34057617 236.09838867 187.34057617 C236.09838867 188.00057617 236.09838867 188.66057617 236.09838867 189.34057617 C236.75838867 189.34057617 237.41838867 189.34057617 238.09838867 189.34057617 C238.09838867 190.00057617 238.09838867 190.66057617 238.09838867 191.34057617 C239.08838867 191.34057617 240.07838867 191.34057617 241.09838867 191.34057617 C241.09838867 192.00057617 241.09838867 192.66057617 241.09838867 193.34057617 C241.88213867 193.58807617 242.66588867 193.83557617 243.47338867 194.09057617 C246.58389687 195.57177055 246.71459335 196.31352391 248.09838867 199.34057617 C251.45440019 203.25592294 254.09660028 205.06104891 259.09838867 206.34057617 C259.09838867 207.00057617 259.09838867 207.66057617 259.09838867 208.34057617 C259.75838867 208.34057617 260.41838867 208.34057617 261.09838867 208.34057617 C261.09838867 209.00057617 261.09838867 209.66057617 261.09838867 210.34057617 C261.75838867 210.34057617 262.41838867 210.34057617 263.09838867 210.34057617 C263.42838867 211.00057617 263.75838867 211.66057617 264.09838867 212.34057617 C267.72838867 212.34057617 271.35838867 212.34057617 275.09838867 212.34057617 C275.09838867 211.68057617 275.09838867 211.02057617 275.09838867 210.34057617 C276.41838867 210.34057617 277.73838867 210.34057617 279.09838867 210.34057617 C279.09838867 209.68057617 279.09838867 209.02057617 279.09838867 208.34057617 C280.41838867 208.34057617 281.73838867 208.34057617 283.09838867 208.34057617 C285.51686064 205.83573021 286.09838867 204.88043812 286.09838867 201.34057617 C287.02651367 200.96932617 287.02651367 200.96932617 287.97338867 200.59057617 C290.51369595 199.09627777 291.1270305 198.09275766 292.09838867 195.34057617 C292.09838867 194.02057617 292.09838867 192.70057617 292.09838867 191.34057617 C292.75838867 191.34057617 293.41838867 191.34057617 294.09838867 191.34057617 C294.09838867 190.68057617 294.09838867 190.02057617 294.09838867 189.34057617 C294.75838867 189.34057617 295.41838867 189.34057617 296.09838867 189.34057617 C296.09838867 188.02057617 296.09838867 186.70057617 296.09838867 185.34057617 C296.75838867 185.34057617 297.41838867 185.34057617 298.09838867 185.34057617 C298.09838867 184.02057617 298.09838867 182.70057617 298.09838867 181.34057617 C299.41838867 180.68057617 300.73838867 180.02057617 302.09838867 179.34057617 C302.09838867 178.35057617 302.09838867 177.36057617 302.09838867 176.34057617 C302.75838867 176.34057617 303.41838867 176.34057617 304.09838867 176.34057617 C304.46963867 175.28870117 304.46963867 175.28870117 304.84838867 174.21557617 C306.26318522 170.9615441 308.13054645 168.2923395 310.09838867 165.34057617 C311.13298097 163.3023906 312.11659953 161.24944782 313.07104492 159.17260742 C314.09838867 157.34057617 314.09838867 157.34057617 315.71948242 155.78979492 C317.44304556 154.31174543 317.44304556 154.31174543 317.09838867 151.34057617 C317.75838867 151.34057617 318.41838867 151.34057617 319.09838867 151.34057617 C319.09838867 150.02057617 319.09838867 148.70057617 319.09838867 147.34057617 C319.75838867 147.34057617 320.41838867 147.34057617 321.09838867 147.34057617 C323.37573877 144.52547624 323.37573877 144.52547624 323.09838867 141.34057617 C323.75838867 141.34057617 324.41838867 141.34057617 325.09838867 141.34057617 C325.09838867 140.02057617 325.09838867 138.70057617 325.09838867 137.34057617 C325.75838867 137.34057617 326.41838867 137.34057617 327.09838867 137.34057617 C327.09838867 136.68057617 327.09838867 136.02057617 327.09838867 135.34057617 C327.75838867 135.34057617 328.41838867 135.34057617 329.09838867 135.34057617 C329.09838867 134.02057617 329.09838867 132.70057617 329.09838867 131.34057617 C329.75838867 131.34057617 330.41838867 131.34057617 331.09838867 131.34057617 C331.55213867 130.22682617 332.00588867 129.11307617 332.47338867 127.96557617 C334.09838867 124.34057617 334.09838867 124.34057617 336.09838867 122.34057617 C336.09838867 121.02057617 336.09838867 119.70057617 336.09838867 118.34057617 C336.75838867 118.34057617 337.41838867 118.34057617 338.09838867 118.34057617 C339.67990543 116.00595619 340.98460952 113.54941131 342.33276367 111.07495117 C342.77104492 110.27573242 343.20932617 109.47651367 343.66088867 108.65307617 C344.07467773 107.88608398 344.4884668 107.1190918 344.91479492 106.32885742 C346.09838867 104.34057617 346.09838867 104.34057617 348.09838867 102.34057617 C348.09838867 101.35057617 348.09838867 100.36057617 348.09838867 99.34057617 C348.75838867 99.34057617 349.41838867 99.34057617 350.09838867 99.34057617 C350.75838867 95.71057617 351.41838867 92.08057617 352.09838867 88.34057617 C351.43838867 88.34057617 350.77838867 88.34057617 350.09838867 88.34057617 C349.43172201 85.67390951 348.76505534 83.00724284 348.09838867 80.34057617 C347.43838867 80.34057617 346.77838867 80.34057617 346.09838867 80.34057617 C346.09838867 79.68057617 346.09838867 79.02057617 346.09838867 78.34057617 C344.44838867 78.01057617 342.79838867 77.68057617 341.09838867 77.34057617 C341.09838867 76.68057617 341.09838867 76.02057617 341.09838867 75.34057617 C330.65885097 74.41287404 330.65885097 74.41287404 322.09838867 79.34057617 Z " fill="#2E74E7" transform="translate(15.901611328125,26.659423828125)"/>
<path d="M0 0 C3.16648655 -0.08820927 6.33265092 -0.1407905 9.5 -0.1875 C10.386875 -0.21263672 11.27375 -0.23777344 12.1875 -0.26367188 C18.21115595 -0.33010926 22.48302619 0.57716969 28 3 C28.99 3.33 29.98 3.66 31 4 C31.99 5.485 31.99 5.485 33 7 C35.05925139 7.72382467 35.05925139 7.72382467 37 8 C37 8.66 37 9.32 37 10 C37.66 10 38.32 10 39 10 C39 10.66 39 11.32 39 12 C39.66 12 40.32 12 41 12 C41 12.66 41 13.32 41 14 C41.66 14 42.32 14 43 14 C43 14.66 43 15.32 43 16 C43.66 16 44.32 16 45 16 C45 16.66 45 17.32 45 18 C45.66 18 46.32 18 47 18 C47 19.32 47 20.64 47 22 C47.66 22 48.32 22 49 22 C49 23.98 49 25.96 49 28 C49.66 28 50.32 28 51 28 C51 29.98 51 31.96 51 34 C51.66 34 52.32 34 53 34 C53.02888514 37.14581423 53.04675923 40.29159469 53.0625 43.4375 C53.07087891 44.33533203 53.07925781 45.23316406 53.08789062 46.15820312 C53.09111328 47.01220703 53.09433594 47.86621094 53.09765625 48.74609375 C53.10289307 49.53685303 53.10812988 50.3276123 53.11352539 51.14233398 C53 53 53 53 52 54 C51.63239269 56.32817964 51.29758419 58.6618385 51 61 C50.34 61 49.68 61 49 61 C49 62.32 49 63.64 49 65 C48.34 65 47.68 65 47 65 C47 66.32 47 67.64 47 69 C46.34 69 45.68 69 45 69 C45 69.66 45 70.32 45 71 C44.34 71 43.68 71 43 71 C43 71.66 43 72.32 43 73 C42.34 73 41.68 73 41 73 C41 73.66 41 74.32 41 75 C40.34 75 39.68 75 39 75 C38.71125 75.61875 38.4225 76.2375 38.125 76.875 C37 79 37 79 35 81 C33.68 81 32.36 81 31 81 C31 81.66 31 82.32 31 83 C27.19717566 85.50916948 23.33837961 85.25607884 18.953125 85.1953125 C17.79632233 85.19106766 17.79632233 85.19106766 16.6161499 85.18673706 C14.16060668 85.17557013 11.7054324 85.15047229 9.25 85.125 C7.58203653 85.11496568 5.91406732 85.10584061 4.24609375 85.09765625 C0.16392103 85.07564225 -3.917977 85.04113667 -8 85 C-8 84.34 -8 83.68 -8 83 C-9.32 83 -10.64 83 -12 83 C-12 82.34 -12 81.68 -12 81 C-12.99 81 -13.98 81 -15 81 C-15 80.34 -15 79.68 -15 79 C-15.99 79 -16.98 79 -18 79 C-18 78.34 -18 77.68 -18 77 C-18.66 77 -19.32 77 -20 77 C-25 71.52380952 -25 71.52380952 -25 69 C-25.99 69 -26.98 69 -28 69 C-28 67.68 -28 66.36 -28 65 C-28.66 65 -29.32 65 -30 65 C-32.92341615 57.95783012 -33.46080173 51.63688582 -33.375 44.0625 C-33.38660156 43.04220703 -33.39820313 42.02191406 -33.41015625 40.97070312 C-33.38413161 34.17393399 -32.32808364 28.3841109 -30 22 C-29.34 22 -28.68 22 -28 22 C-27.88825439 21.40074707 -27.77650879 20.80149414 -27.66137695 20.18408203 C-26.58135451 16.61749629 -23.79733977 14.4078079 -21.1875 11.875 C-20.65318359 11.33746094 -20.11886719 10.79992187 -19.56835938 10.24609375 C-13.23659601 4 -13.23659601 4 -8 4 C-8 3.34 -8 2.68 -8 2 C-5.36 2 -2.72 2 0 2 C0 1.34 0 0.68 0 0 Z " fill="#2368D9" transform="translate(407,400)"/>
<path d="M0 0 C0.9384375 -0.02449219 1.876875 -0.04898437 2.84375 -0.07421875 C11.372352 -0.10955826 17.75357848 2.57985661 25.25 6.375 C25.25 7.035 25.25 7.695 25.25 8.375 C25.91 8.375 26.57 8.375 27.25 8.375 C27.25 9.035 27.25 9.695 27.25 10.375 C28.57 11.035 29.89 11.695 31.25 12.375 C31.25 13.035 31.25 13.695 31.25 14.375 C31.91 14.375 32.57 14.375 33.25 14.375 C33.25 15.035 33.25 15.695 33.25 16.375 C33.91 16.375 34.57 16.375 35.25 16.375 C35.25 17.695 35.25 19.015 35.25 20.375 C35.91 20.375 36.57 20.375 37.25 20.375 C37.25 21.695 37.25 23.015 37.25 24.375 C37.91 24.375 38.57 24.375 39.25 24.375 C41.57590854 28.00923209 41.41265833 31.14588331 41.25 35.375 C41.91 35.375 42.57 35.375 43.25 35.375 C43.25 40.985 43.25 46.595 43.25 52.375 C42.59 52.375 41.93 52.375 41.25 52.375 C41.29125 53.4475 41.3325 54.52 41.375 55.625 C41.2614175 59.03247485 41.03726636 60.58239631 39.25 63.375 C38.59 63.375 37.93 63.375 37.25 63.375 C37.25 64.695 37.25 66.015 37.25 67.375 C36.59 67.375 35.93 67.375 35.25 67.375 C35.25 68.695 35.25 70.015 35.25 71.375 C34.59 71.375 33.93 71.375 33.25 71.375 C33.25 72.035 33.25 72.695 33.25 73.375 C32.59 73.375 31.93 73.375 31.25 73.375 C30.26 75.355 30.26 75.355 29.25 77.375 C28.59 77.375 27.93 77.375 27.25 77.375 C27.25 78.035 27.25 78.695 27.25 79.375 C26.59 79.375 25.93 79.375 25.25 79.375 C25.25 80.035 25.25 80.695 25.25 81.375 C19.82223913 84.99142165 16.15152122 85.94313756 9.69140625 85.765625 C8.50767677 85.75713531 8.50767677 85.75713531 7.30003357 85.74847412 C4.80354626 85.72625686 2.30854625 85.67609219 -0.1875 85.625 C-1.88995309 85.60491588 -3.59242889 85.58666847 -5.29492188 85.5703125 C-9.44717914 85.52644072 -13.59833828 85.45751908 -17.75 85.375 C-17.75 84.715 -17.75 84.055 -17.75 83.375 C-19.07 83.375 -20.39 83.375 -21.75 83.375 C-21.75 82.715 -21.75 82.055 -21.75 81.375 C-23.07 81.375 -24.39 81.375 -25.75 81.375 C-30.75 76.14772727 -30.75 76.14772727 -30.75 73.375 C-31.41 73.375 -32.07 73.375 -32.75 73.375 C-32.75 72.715 -32.75 72.055 -32.75 71.375 C-33.678125 71.00375 -33.678125 71.00375 -34.625 70.625 C-37.1878364 69.11744918 -37.79314447 68.16582862 -38.75 65.375 C-38.875 62.625 -38.875 62.625 -38.75 60.375 C-39.41 60.375 -40.07 60.375 -40.75 60.375 C-40.75 59.055 -40.75 57.735 -40.75 56.375 C-41.41 56.375 -42.07 56.375 -42.75 56.375 C-42.75 48.455 -42.75 40.535 -42.75 32.375 C-42.09 32.375 -41.43 32.375 -40.75 32.375 C-40.646875 31.735625 -40.54375 31.09625 -40.4375 30.4375 C-39.84892168 27.81565111 -39.20164463 25.26233515 -38.4375 22.6875 C-38.21449219 21.92050781 -37.99148437 21.15351563 -37.76171875 20.36328125 C-36.50272887 17.88905018 -35.29359211 17.35572521 -32.75 16.375 C-32.75 15.715 -32.75 15.055 -32.75 14.375 C-32.09 14.375 -31.43 14.375 -30.75 14.375 C-30.5025 13.7975 -30.255 13.22 -30 12.625 C-26.46449666 6.26109399 -20.57023741 3.99081038 -14.1640625 1.28125 C-9.41722075 0.02121878 -4.8912254 0.00660976 0 0 Z " fill="#2B71E3" transform="translate(156.75,399.625)"/>
<path d="M0 0 C1.65 0 3.3 0 5 0 C5 1.32 5 2.64 5 4 C5.66 4 6.32 4 7 4 C7 4.99 7 5.98 7 7 C6.01 7 5.02 7 4 7 C4 6.01 4 5.02 4 4 C2.68 4 1.36 4 0 4 C0 2.68 0 1.36 0 0 Z " fill="#1D4C99" transform="translate(505,72)"/>
<path d="M0 0 C1.65 0 3.3 0 5 0 C5 1.32 5 2.64 5 4 C3.35 4 1.7 4 0 4 C0 2.68 0 1.36 0 0 Z " fill="#18438B" transform="translate(463,253)"/>
<path d="M0 0 C1.32 0 2.64 0 4 0 C4 1.32 4 2.64 4 4 C2.35 4 0.7 4 -1 4 C-0.67 2.68 -0.34 1.36 0 0 Z " fill="#193B79" transform="translate(132,477)"/>
</svg>
